<svg xmlns="http://www.w3.org/2000/svg" xmlns:xlink="http://www.w3.org/1999/xlink" width="244" height="158" viewBox="0 0 244 158">
  <defs>
    <clipPath id="clip-path">
      <rect id="長方形_83" data-name="長方形 83" width="86.668" height="87.11" fill="none"/>
    </clipPath>
    <clipPath id="clip-path-2">
      <rect id="長方形_84" data-name="長方形 84" width="87.212" height="86.77" fill="none"/>
    </clipPath>
    <clipPath id="clip-path-3">
      <rect id="長方形_85" data-name="長方形 85" width="19.138" height="19.138" fill="none"/>
    </clipPath>
  </defs>
  <g id="logo" transform="translate(30)">
    <g id="グループ_34" data-name="グループ 34" transform="translate(42.838)">
      <g id="グループ_31" data-name="グループ 31" transform="translate(0 12.214)" clip-path="url(#clip-path)">
        <path id="パス_66" data-name="パス 66" d="M124.464,98.172H37.91V11.55h86.554ZM39.295,96.787h83.784V12.935H39.295V96.787Z" transform="translate(-37.91 -10.653)" fill="#155b98"/>
      </g>
      <path id="パス_67" data-name="パス 67" d="M129.883,91.932H43.34V5.31h86.543ZM44.714,90.547H128.5V6.695H44.714V90.547Z" transform="translate(-37.176 0.718)" fill="#fff"/>
      <g id="グループ_32" data-name="グループ 32" transform="translate(12.112)" clip-path="url(#clip-path-2)">
        <path id="パス_68" data-name="パス 68" d="M135.713,86.342H49.17V-.28h86.543ZM50.555,84.957h83.773V1.094H50.544V84.957Z" transform="translate(-48.5 -0.038)" fill="#155b98"/>
      </g>
      <g id="グループ_33" data-name="グループ 33" transform="translate(21.919 57.756)" clip-path="url(#clip-path-3)">
        <path id="パス_69" data-name="パス 69" d="M57.22,50.88H76.358V70.018H57.22V50.88Z" transform="translate(-57.22 -50.88)" fill="#fff"/>
      </g>
    </g>
    <g id="logo-name" transform="translate(-30 116)">
      <path id="パス_94" data-name="パス 94" d="M133.411,39.709a11.619,11.619,0,0,0,5.011-1.074l-.486,5.446a14.763,14.763,0,0,1-5.608,1.133c-6.034,0-9.809-3.017-9.809-9.162v-25.5l6.733-.913v7.33h9.213l-.486,5.011h-8.728V35.234c0,3.392,1.943,4.474,4.15,4.474Z" transform="translate(-32.437 -3.213)" fill="#fff"/>
      <g id="グループ_60" data-name="グループ 60">
        <path id="パス_95" data-name="パス 95" d="M0,41.971V4.18H22.474v6.038H7.1v9.61H20.348v6.1H7.1v10H22.474v6.045H0Z" transform="translate(0 -1.104)" fill="#fff"/>
        <path id="パス_96" data-name="パス 96" d="M53.548,46.206l-5.424-9.559h-.39l-5.424,9.559H35.32l8.551-14.482L35.541,17.69h7.381l5.144,9.059H48.4l5.144-9.059h6.991l-8.22,13.975L60.87,46.2H53.548Z" transform="translate(-9.328 -5.339)" fill="#fff"/>
        <path id="パス_97" data-name="パス 97" d="M88.6,46.276a34.972,34.972,0,0,1-3.8.221c-3.209,0-5.571-.522-7.1-1.567a7.175,7.175,0,0,1-2.966-4.555,41.613,41.613,0,0,1-.67-8.581,36.935,36.935,0,0,1,.758-8.551,7.49,7.49,0,0,1,3.017-4.614q2.263-1.534,6.851-1.538a35.179,35.179,0,0,1,3.886.221,17.53,17.53,0,0,1,3.216.611v5.254a28.8,28.8,0,0,0-5.313-.449,8.2,8.2,0,0,0-3.775.64,3.378,3.378,0,0,0-1.509,2.458,34.073,34.073,0,0,0-.361,5.953,32.737,32.737,0,0,0,.39,6.012,3.323,3.323,0,0,0,1.538,2.428,8.478,8.478,0,0,0,3.775.611,36.864,36.864,0,0,0,5.475-.39v5.2a21.986,21.986,0,0,1-3.407.618Z" transform="translate(-19.607 -5.181)" fill="#fff"/>
        <path id="パス_98" data-name="パス 98" d="M105.9,6.27V0h6.873V6.27H105.9Zm.059,34.6V12.816h6.763V40.867Z" transform="translate(-28.034)" fill="#fff"/>
        <path id="パス_99" data-name="パス 99" d="M171.334,33.966h-15.6a20.137,20.137,0,0,0,.361,4.666,2.533,2.533,0,0,0,1.729,1.788,16.468,16.468,0,0,0,4.783.478,73.243,73.243,0,0,0,7.83-.449v5.2a29.493,29.493,0,0,1-4.246.618c-1.751.147-3.451.221-5.085.221q-5.53,0-8.08-1.428a6.687,6.687,0,0,1-3.3-4.364,38.5,38.5,0,0,1-.758-8.86,37.224,37.224,0,0,1,.758-8.75,7.079,7.079,0,0,1,3.216-4.5q2.462-1.512,7.661-1.509c3.466,0,5.843.486,7.352,1.45a6.352,6.352,0,0,1,2.826,4.334,52.229,52.229,0,0,1,.559,8.971v2.127ZM157.359,23.119a2.607,2.607,0,0,0-1.258,1.847,24.1,24.1,0,0,0-.361,4.415h9.221a20.109,20.109,0,0,0-.361-4.474,2.641,2.641,0,0,0-1.288-1.847,6.865,6.865,0,0,0-2.826-.449,7.19,7.19,0,0,0-3.128.5Z" transform="translate(-39.442 -5.176)" fill="#fff"/>
        <path id="パス_100" data-name="パス 100" d="M221.661,42.013a39.914,39.914,0,0,1-4.3.246q-6.2,0-9.081-1.649A8.363,8.363,0,0,1,204.419,35a54.5,54.5,0,0,1-.979-12.088,54.072,54.072,0,0,1,.979-12.059A8.475,8.475,0,0,1,208.3,5.248q2.9-1.671,9.059-1.678a36.142,36.142,0,0,1,4.357.275A24.122,24.122,0,0,1,225.3,4.5V10.11a59.331,59.331,0,0,0-6.314-.492q-4.195,0-5.814.8a4.29,4.29,0,0,0-2.1,3.349,58.42,58.42,0,0,0-.478,9.151,57.562,57.562,0,0,0,.478,9.151,4.278,4.278,0,0,0,2.1,3.349c1.082.535,3.017.8,5.814.8a43.4,43.4,0,0,0,6.483-.492v5.664a27.61,27.61,0,0,1-3.8.629Z" transform="translate(-65.863 -0.943)" fill="#fff"/>
        <path id="パス_101" data-name="パス 101" d="M243.646,45.241A5.922,5.922,0,0,1,240.57,41.1a45.478,45.478,0,0,1-.67-9.309,46.014,46.014,0,0,1,.67-9.361,5.839,5.839,0,0,1,3.076-4.106q2.406-1.225,7.881-1.229c3.65,0,6.226.412,7.823,1.229a5.848,5.848,0,0,1,3.076,4.136,45.91,45.91,0,0,1,.67,9.339,45.475,45.475,0,0,1-.67,9.309,5.922,5.922,0,0,1-3.076,4.136q-2.406,1.258-7.823,1.258c-3.613,0-6.277-.419-7.881-1.258Zm11.3-4.945a2.872,2.872,0,0,0,1.177-2.237,57.607,57.607,0,0,0,.221-6.262,58.084,58.084,0,0,0-.221-6.292,2.85,2.85,0,0,0-1.148-2.208,7.248,7.248,0,0,0-3.437-.559,7.432,7.432,0,0,0-3.466.559,2.846,2.846,0,0,0-1.177,2.208,57.421,57.421,0,0,0-.221,6.292,57.047,57.047,0,0,0,.221,6.262,2.83,2.83,0,0,0,1.177,2.237,7.432,7.432,0,0,0,3.466.559,7.148,7.148,0,0,0,3.407-.559Z" transform="translate(-75.517 -5.183)" fill="#fff"/>
        <path id="パス_102" data-name="パス 102" d="M281.935,40.048a7.386,7.386,0,0,1-2.686-4.374,35.456,35.456,0,0,1-.839-8.777,36.287,36.287,0,0,1,.809-8.719,7.713,7.713,0,0,1,2.627-4.454,8.362,8.362,0,0,1,5.063-1.347,11.061,11.061,0,0,1,4.474.8,5.782,5.782,0,0,1,2.8,2.723h.39V0h6.711V40.874h-6.262L294.8,37.4h-.39q-1.623,3.911-7.322,3.9a8.972,8.972,0,0,1-5.144-1.267Zm10.648-5.113a3.005,3.005,0,0,0,1.369-1.651,11.384,11.384,0,0,0,.478-2.506c.1-1.007.14-2.317.14-3.932,0-1.506-.029-2.7-.081-3.607a8.568,8.568,0,0,0-.419-2.281,3.339,3.339,0,0,0-1.339-2.035,5.233,5.233,0,0,0-2.8-.608,7.057,7.057,0,0,0-3.216.521,2.982,2.982,0,0,0-1.229,2.2,36.846,36.846,0,0,0-.309,5.8,37.725,37.725,0,0,0,.309,5.859,2.982,2.982,0,0,0,1.229,2.2,7.057,7.057,0,0,0,3.216.521,5.8,5.8,0,0,0,2.657-.492Z" transform="translate(-85.739)" fill="#fff"/>
        <path id="パス_103" data-name="パス 103" d="M340.124,33.966h-15.6a20.138,20.138,0,0,0,.361,4.666,2.533,2.533,0,0,0,1.729,1.788,16.468,16.468,0,0,0,4.783.478,73.244,73.244,0,0,0,7.83-.449v5.2a29.493,29.493,0,0,1-4.246.618c-1.751.147-3.451.221-5.085.221q-5.53,0-8.08-1.428a6.687,6.687,0,0,1-3.3-4.364,38.5,38.5,0,0,1-.758-8.86,37.226,37.226,0,0,1,.758-8.75,7.079,7.079,0,0,1,3.216-4.5q2.462-1.512,7.661-1.509c3.466,0,5.843.486,7.352,1.45a6.352,6.352,0,0,1,2.826,4.334,52.228,52.228,0,0,1,.559,8.971v2.127ZM326.149,23.119a2.607,2.607,0,0,0-1.258,1.847,24.093,24.093,0,0,0-.361,4.415h9.221a20.11,20.11,0,0,0-.361-4.474A2.641,2.641,0,0,0,332.1,23.06a6.865,6.865,0,0,0-2.826-.449,7.19,7.19,0,0,0-3.128.5Z" transform="translate(-96.131 -5.176)" fill="#fff"/>
      </g>
    </g>
  </g>
</svg>
